<?xml version="1.0" encoding="UTF-8" standalone="no"?>
<svg
   id="Layer_1"
   data-name="Layer 1"
   viewBox="0 0 214 214"
   version="1.1"
   sodipodi:docname="favicon.svg"
   inkscape:version="1.2.1 (9c6d41e410, 2022-07-14)"
   width="214"
   height="214"
   xmlns:inkscape="http://www.inkscape.org/namespaces/inkscape"
   xmlns:sodipodi="http://sodipodi.sourceforge.net/DTD/sodipodi-0.dtd"
   xmlns="http://www.w3.org/2000/svg"
   xmlns:svg="http://www.w3.org/2000/svg">
  <sodipodi:namedview
     id="namedview210"
     pagecolor="#ffffff"
     bordercolor="#666666"
     borderopacity="1.0"
     inkscape:showpageshadow="2"
     inkscape:pageopacity="0.0"
     inkscape:pagecheckerboard="0"
     inkscape:deskcolor="#d1d1d1"
     showgrid="false"
     inkscape:zoom="1.8297514"
     inkscape:cx="163.13692"
     inkscape:cy="150.84016"
     inkscape:window-width="1920"
     inkscape:window-height="1046"
     inkscape:window-x="-11"
     inkscape:window-y="-11"
     inkscape:window-maximized="1"
     inkscape:current-layer="Layer_1" />
  <defs
     id="defs147">
    <style
       id="style142">.cls-1,.cls-4{fill:none;}.cls-2{fill:#b6ccd6;}.cls-3{fill:#fff;}.cls-4{stroke:#fff;stroke-miterlimit:10;stroke-width:3.4px;}.cls-5{clip-path:url(#clip-path);}.cls-6{fill:#47b5b7;}.cls-7{fill:#b2c135;}.cls-8{fill:#f9a01b;}.cls-9{fill:#f15d2a;}.cls-10{fill:#005c27;}</style>
    <clipPath
       id="clip-path"
       transform="translate(-189.84 -143)">
      <circle
         class="cls-1"
         cx="296.84"
         cy="250"
         r="89.739998"
         id="circle144" />
    </clipPath>
  </defs>
  <circle
     class="cls-2"
     cx="107"
     cy="107"
     r="89.739998"
     id="circle149" />
  <path
     class="cls-3"
     d="M 107,214 A 107,107 0 1 1 214,107 107.12,107.12 0 0 1 107,214 Z M 107,6.89 A 100.11,100.11 0 1 0 207.16,107 100.23,100.23 0 0 0 107,6.89 Z"
     id="path151" />
  <g
     class="cls-5"
     clip-path="url(#clip-path)"
     id="g207">
    <rect
       class="cls-6"
       x="12.18"
       y="10.31"
       width="189.64"
       height="200.53999"
       id="rect193" />
    <path
       class="cls-7"
       d="m 367.93,248.94 c -1.77,-1.71 -3.19,-3.63 -5.86,-4.89 -2,-0.93 -11.38,-14.44 -17.28,-17 -8.74,-3.78 -24.94,-16.07 -28.34,-15.63 -5.71,0.75 -43,21.12 -48.32,22.53 -13.86,3.65 -31.65,21.72 -35.3,23.33 v 62.06 h 158.83 v -60.87 c -9.75,-1.04 -18.66,-4.6 -23.73,-9.53 z"
       transform="translate(-189.84,-143)"
       id="path195" />
    <circle
       class="cls-8"
       cx="52.689999"
       cy="68.550003"
       r="16.17"
       id="circle197" />
    <path
       class="cls-8"
       d="M 338.27,261.7 A 33,33 0 0 0 333.4,258 c -7.49,-4.41 -19.22,-4.86 -27.26,-8.88 -4.54,-2.27 -7.62,-5.56 -12.44,-7.6 -7.4,-3.15 -21.37,-14.68 -30.29,-14.12 a 18.57,18.57 0 0 0 -4.86,0.73 11.8,11.8 0 0 0 -3.87,2.52 c -5.31,4.48 -11.36,10 -19.23,11.56 -16.36,3.35 -29.57,26.62 -33.43,27.55 v 54.77 h 165.5 l 0.18,-37.61 z"
       transform="translate(-189.84,-143)"
       id="path199" />
    <path
       class="cls-9"
       d="m 352.85,277.13 c -9.12,-5.57 -17.88,-12.43 -29.2,-14 -4,-0.55 -8.25,-0.38 -12.15,-1.37 -6.4,-1.63 -11.1,-6.15 -17.42,-7.94 -9.54,-2.71 -19.81,1.34 -28.65,5.27 l -13.64,6.07 a 46.94,46.94 0 0 0 -9.33,5 c -2.82,2.11 -4.91,4.75 -7.38,7.12 C 227,285 214.6,289.7 202,289.78 v 34.77 h 189.66 v -34.77 c -13.84,-3.32 -27.34,-5.63 -38.81,-12.65 z"
       transform="translate(-189.84,-143)"
       id="path201" />
    <path
       class="cls-10"
       d="m 363.92,316.33 a 73.14,73.14 0 0 0 -9.95,-2.5 84.55,84.55 0 0 0 -14.6,-0.48 c -13,0.26 -26.08,0 -38.65,-2.31 -9.91,-1.85 -20.41,-5 -30,-2.28 a 67.46,67.46 0 0 0 -7.71,3 72.85,72.85 0 0 1 -26.01,5.37 c -2.84,0.06 -5.89,0 -8.26,1.16 -1.44,0.7 -2.47,1.79 -3.86,2.55 a 17.42,17.42 0 0 1 -4.84,1.5 98.46,98.46 0 0 1 -18,1.85 v 29.66 h 189.62 v -29.66 c -7.24,-2.19 -20.5,-5.67 -27.74,-7.86 z"
       transform="translate(-189.84,-143)"
       id="path203" />
    <path
       class="cls-10"
       d="m 334.27,269.54 c -1.66,-1.47 -3.36,-2.89 -5,-4.34 l -5.09,-4.27 c -1.7,-1.42 -3.43,-2.79 -5.15,-4.19 -1.72,-1.4 -3.43,-2.8 -5.17,-4.16 -1.74,-1.36 -3.47,-2.74 -5.21,-4.11 q -4.85,-3.76 -9.74,-7.46 l -0.37,-11.71 c 1.87,1.39 3.73,2.79 5.62,4.15 1.44,1 2.87,2.07 4.32,3.08 1.45,1.01 2.89,2 4.35,3 l 4.39,3 q 2.2,1.47 4.44,2.91 c 1.49,1 3,1.91 4.49,2.84 1.49,0.93 3,1.85 4.58,2.73 -1.28,-1.24 -2.58,-2.44 -3.89,-3.64 -1.31,-1.2 -2.64,-2.37 -4,-3.54 -1.36,-1.17 -2.67,-2.32 -4,-3.46 -1.33,-1.14 -2.7,-2.27 -4.07,-3.4 -1.37,-1.13 -2.73,-2.24 -4.11,-3.35 -1.38,-1.11 -2.76,-2.2 -4.15,-3.29 -2.69,-2.12 -5.41,-4.2 -8.14,-6.27 l -0.35,-11 c 1.18,0.88 2.36,1.75 3.56,2.6 1,0.71 2,1.42 3,2.11 1,0.69 2,1.38 3.06,2.05 1.06,0.67 2.06,1.35 3.1,2 1.04,0.65 2.09,1.3 3.15,1.94 1.06,0.64 2.12,1.26 3.2,1.86 1.08,0.6 2.17,1.21 3.28,1.77 -0.84,-0.93 -1.71,-1.8 -2.59,-2.67 -0.88,-0.87 -1.78,-1.73 -2.68,-2.57 -0.9,-0.84 -1.81,-1.67 -2.73,-2.49 -0.92,-0.82 -1.85,-1.62 -2.78,-2.43 -0.93,-0.81 -1.88,-1.59 -2.83,-2.37 -0.95,-0.78 -1.9,-1.55 -2.85,-2.32 -1.92,-1.54 -3.86,-3 -5.82,-4.52 l -1.24,-1 -1.24,1 -2.92,2.23 c -1,0.76 -1.94,1.51 -2.89,2.28 -0.95,0.77 -1.92,1.54 -2.86,2.33 -0.94,0.79 -1.89,1.57 -2.82,2.37 -0.93,0.8 -1.86,1.61 -2.78,2.43 -0.92,0.82 -1.83,1.65 -2.74,2.49 -0.91,0.84 -1.79,1.69 -2.67,2.56 -0.88,0.87 -1.75,1.75 -2.6,2.68 1.12,-0.56 2.21,-1.16 3.29,-1.76 1.08,-0.6 2.14,-1.23 3.2,-1.87 1.06,-0.64 2.11,-1.28 3.15,-1.94 1.04,-0.66 2.07,-1.32 3.1,-2 1.03,-0.68 2.05,-1.36 3.06,-2.06 1.01,-0.7 2,-1.4 3,-2.1 1,-0.7 2,-1.44 3,-2.16 l 0.73,-0.54 -0.37,11 -4.1,3.12 -4.19,3.25 c -1.38,1.1 -2.77,2.19 -4.14,3.3 -1.37,1.11 -2.75,2.22 -4.12,3.35 -1.37,1.13 -2.72,2.25 -4.07,3.4 -1.35,1.15 -2.69,2.29 -4,3.46 -1.31,1.17 -2.66,2.34 -4,3.54 -1.34,1.2 -2.62,2.4 -3.89,3.64 1.55,-0.88 3.06,-1.8 4.58,-2.73 1.52,-0.93 3,-1.88 4.49,-2.83 1.49,-0.95 3,-1.94 4.44,-2.92 1.44,-0.98 2.94,-2 4.39,-3 1.45,-1 2.91,-2 4.35,-3 1.44,-1 2.88,-2.05 4.32,-3.08 l 4.28,-3.12 1.48,-1.11 -0.39,11.69 -4.61,3.5 -5.25,4.06 -5.22,4.1 c -1.73,1.37 -3.46,2.76 -5.17,4.16 -1.71,1.4 -3.45,2.78 -5.14,4.2 l -5.1,4.26 c -1.68,1.45 -3.37,2.88 -5,4.35 -1.63,1.47 -3.33,2.93 -5,4.45 1.91,-1.15 3.78,-2.34 5.64,-3.54 1.86,-1.2 3.71,-2.43 5.57,-3.64 l 5.5,-3.72 c 1.84,-1.24 3.64,-2.53 5.46,-3.79 1.82,-1.26 3.62,-2.53 5.42,-3.83 l 5.38,-3.88 5.35,-3.93 2,-1.48 L 292,331 h 9.77 L 299,246.24 c 2.4,1.79 4.8,3.58 7.23,5.35 1.79,1.29 3.58,2.6 5.38,3.88 1.8,1.28 3.61,2.56 5.43,3.82 1.82,1.26 3.61,2.55 5.45,3.79 l 5.5,3.72 c 1.86,1.22 3.7,2.45 5.57,3.65 1.87,1.2 3.73,2.39 5.64,3.54 -1.6,-1.52 -3.26,-2.99 -4.93,-4.45 z"
       transform="translate(-189.84,-143)"
       id="path205" />
  </g>
</svg>
